<?xml version="1.0" encoding="UTF-8"?>
<svg width="106px" height="73px" viewBox="0 0 106 73" version="1.1" xmlns="http://www.w3.org/2000/svg" xmlns:xlink="http://www.w3.org/1999/xlink">
    <title>Group</title>
    <g id="Page-1" stroke="none" stroke-width="1" fill="none" fill-rule="evenodd">
        <g id="Artboard" transform="translate(-62.000000, -109.000000)" fill="#D1CAC0">
            <g id="Group" transform="translate(62.000000, 109.000000)">
                <path d="M17.4611129,10 C20.0048745,25.1501036 23.3382079,35.4834369 27.4611129,41 C31.5840179,46.5165631 40.0438862,52.0165631 52.8407176,57.5 C52.9150202,45.2995359 49.7884853,34.9662026 43.4611129,26.5 C37.1337405,18.0337974 28.4670738,12.5337974 17.4611129,10 Z" id="Path" fill-opacity="0.95"></path>
                <path d="M9,19.0067073 C11.5437616,34.1568109 14.877095,44.4901442 19,50.0067073 C23.122905,55.5232703 31.5585584,61.2605267 44.30696,67.2184765 C44.4296925,54.5434996 41.3273724,43.9729098 35,35.5067073 C28.6726276,27.0405047 20.0059609,21.5405047 9,19.0067073 Z" id="Path-Copy" fill-opacity="0.7" transform="translate(26.655232, 43.112592) rotate(-25.000000) translate(-26.655232, -43.112592) "></path>
                <path d="M53.3407176,10 C55.8844792,25.1501036 59.2178126,35.4834369 63.3407176,41 C67.4636226,46.5165631 76.0037544,52.0165631 88.9611129,57.5 C88.8748885,45.2995359 85.66809,34.9662026 79.3407176,26.5 C73.0133452,18.0337974 64.3466785,12.5337974 53.3407176,10 Z" id="Path" fill-opacity="0.95" transform="translate(71.150915, 33.750000) scale(-1, 1) translate(-71.150915, -33.750000) "></path>
                <path d="M61.8709721,19.0067073 C64.4147338,34.1568109 67.7480671,44.4901442 71.8709721,50.0067073 C75.9938772,55.5232703 84.4295305,61.2605267 97.1779322,67.2184765 C97.3006646,54.5434996 94.1983446,43.9729098 87.8709721,35.5067073 C81.5435997,27.0405047 72.876933,21.5405047 61.8709721,19.0067073 Z" id="Path-Copy" fill-opacity="0.7" transform="translate(79.526204, 43.112592) scale(-1, 1) rotate(-25.000000) translate(-79.526204, -43.112592) "></path>
                <circle id="Oval" cx="53" cy="22" r="4"></circle>
                <circle id="Oval-Copy" cx="53" cy="10" r="2"></circle>
                <path d="M53,2 C53.5522847,2 54,1.55228475 54,1 C54,0.44771525 53.5522847,0 53,0 C52.4477153,0 52,0.44771525 52,1 C52,1.55228475 52.4477153,2 53,2 Z" id="Oval-Copy-2"></path>
            </g>
        </g>
    </g>
</svg>